<mxfile host="Electron" agent="Mozilla/5.0 (Windows NT 10.0; Win64; x64) AppleWebKit/537.36 (KHTML, like Gecko) draw.io/24.7.5 Chrome/126.0.6478.183 Electron/31.3.0 Safari/537.36" version="24.7.5">
  <diagram id="C5RBs43oDa-KdzZeNtuy" name="Page-1">
    <mxGraphModel dx="2226" dy="1195" grid="0" gridSize="10" guides="1" tooltips="1" connect="1" arrows="1" fold="1" page="1" pageScale="1" pageWidth="827" pageHeight="1169" math="0" shadow="0">
      <root>
        <mxCell id="WIyWlLk6GJQsqaUBKTNV-0" />
        <mxCell id="WIyWlLk6GJQsqaUBKTNV-1" parent="WIyWlLk6GJQsqaUBKTNV-0" />
        <mxCell id="ZygjGXT3M7OOx8VJVT66-5" value="Abonent" style="swimlane;fontStyle=1;childLayout=stackLayout;horizontal=1;startSize=26;fillColor=none;horizontalStack=0;resizeParent=1;resizeParentMax=0;resizeLast=0;collapsible=1;marginBottom=0;whiteSpace=wrap;html=1;fontSize=12;" parent="WIyWlLk6GJQsqaUBKTNV-1" vertex="1">
          <mxGeometry x="-50" y="430" width="190" height="338" as="geometry" />
        </mxCell>
        <mxCell id="ZygjGXT3M7OOx8VJVT66-6" value="+ AbonentID: int (id)" style="text;strokeColor=none;fillColor=none;align=left;verticalAlign=top;spacingLeft=4;spacingRight=4;overflow=hidden;rotatable=0;points=[[0,0.5],[1,0.5]];portConstraint=eastwest;whiteSpace=wrap;html=1;" parent="ZygjGXT3M7OOx8VJVT66-5" vertex="1">
          <mxGeometry y="26" width="190" height="26" as="geometry" />
        </mxCell>
        <mxCell id="ZygjGXT3M7OOx8VJVT66-7" value="+ TariffID: int" style="text;strokeColor=none;fillColor=none;align=left;verticalAlign=top;spacingLeft=4;spacingRight=4;overflow=hidden;rotatable=0;points=[[0,0.5],[1,0.5]];portConstraint=eastwest;whiteSpace=wrap;html=1;" parent="ZygjGXT3M7OOx8VJVT66-5" vertex="1">
          <mxGeometry y="52" width="190" height="26" as="geometry" />
        </mxCell>
        <mxCell id="ZygjGXT3M7OOx8VJVT66-8" value="+ FirstName: string" style="text;strokeColor=none;fillColor=none;align=left;verticalAlign=top;spacingLeft=4;spacingRight=4;overflow=hidden;rotatable=0;points=[[0,0.5],[1,0.5]];portConstraint=eastwest;whiteSpace=wrap;html=1;" parent="ZygjGXT3M7OOx8VJVT66-5" vertex="1">
          <mxGeometry y="78" width="190" height="26" as="geometry" />
        </mxCell>
        <mxCell id="ZygjGXT3M7OOx8VJVT66-57" value="+ MiddleName: string" style="text;strokeColor=none;fillColor=none;align=left;verticalAlign=top;spacingLeft=4;spacingRight=4;overflow=hidden;rotatable=0;points=[[0,0.5],[1,0.5]];portConstraint=eastwest;whiteSpace=wrap;html=1;" parent="ZygjGXT3M7OOx8VJVT66-5" vertex="1">
          <mxGeometry y="104" width="190" height="26" as="geometry" />
        </mxCell>
        <mxCell id="ZygjGXT3M7OOx8VJVT66-56" value="+ LastName: string" style="text;strokeColor=none;fillColor=none;align=left;verticalAlign=top;spacingLeft=4;spacingRight=4;overflow=hidden;rotatable=0;points=[[0,0.5],[1,0.5]];portConstraint=eastwest;whiteSpace=wrap;html=1;" parent="ZygjGXT3M7OOx8VJVT66-5" vertex="1">
          <mxGeometry y="130" width="190" height="26" as="geometry" />
        </mxCell>
        <mxCell id="ZygjGXT3M7OOx8VJVT66-55" value="+ Region: string" style="text;strokeColor=none;fillColor=none;align=left;verticalAlign=top;spacingLeft=4;spacingRight=4;overflow=hidden;rotatable=0;points=[[0,0.5],[1,0.5]];portConstraint=eastwest;whiteSpace=wrap;html=1;" parent="ZygjGXT3M7OOx8VJVT66-5" vertex="1">
          <mxGeometry y="156" width="190" height="26" as="geometry" />
        </mxCell>
        <mxCell id="ZygjGXT3M7OOx8VJVT66-54" value="+ City: string" style="text;strokeColor=none;fillColor=none;align=left;verticalAlign=top;spacingLeft=4;spacingRight=4;overflow=hidden;rotatable=0;points=[[0,0.5],[1,0.5]];portConstraint=eastwest;whiteSpace=wrap;html=1;" parent="ZygjGXT3M7OOx8VJVT66-5" vertex="1">
          <mxGeometry y="182" width="190" height="26" as="geometry" />
        </mxCell>
        <mxCell id="ZygjGXT3M7OOx8VJVT66-53" value="+ Street: string" style="text;strokeColor=none;fillColor=none;align=left;verticalAlign=top;spacingLeft=4;spacingRight=4;overflow=hidden;rotatable=0;points=[[0,0.5],[1,0.5]];portConstraint=eastwest;whiteSpace=wrap;html=1;" parent="ZygjGXT3M7OOx8VJVT66-5" vertex="1">
          <mxGeometry y="208" width="190" height="26" as="geometry" />
        </mxCell>
        <mxCell id="ZygjGXT3M7OOx8VJVT66-52" value="+ House: string" style="text;strokeColor=none;fillColor=none;align=left;verticalAlign=top;spacingLeft=4;spacingRight=4;overflow=hidden;rotatable=0;points=[[0,0.5],[1,0.5]];portConstraint=eastwest;whiteSpace=wrap;html=1;" parent="ZygjGXT3M7OOx8VJVT66-5" vertex="1">
          <mxGeometry y="234" width="190" height="26" as="geometry" />
        </mxCell>
        <mxCell id="ZygjGXT3M7OOx8VJVT66-51" value="+ Flat: int" style="text;strokeColor=none;fillColor=none;align=left;verticalAlign=top;spacingLeft=4;spacingRight=4;overflow=hidden;rotatable=0;points=[[0,0.5],[1,0.5]];portConstraint=eastwest;whiteSpace=wrap;html=1;" parent="ZygjGXT3M7OOx8VJVT66-5" vertex="1">
          <mxGeometry y="260" width="190" height="26" as="geometry" />
        </mxCell>
        <mxCell id="ZygjGXT3M7OOx8VJVT66-50" value="+ PhoneNumber: string" style="text;strokeColor=none;fillColor=none;align=left;verticalAlign=top;spacingLeft=4;spacingRight=4;overflow=hidden;rotatable=0;points=[[0,0.5],[1,0.5]];portConstraint=eastwest;whiteSpace=wrap;html=1;" parent="ZygjGXT3M7OOx8VJVT66-5" vertex="1">
          <mxGeometry y="286" width="190" height="26" as="geometry" />
        </mxCell>
        <mxCell id="ZygjGXT3M7OOx8VJVT66-49" value="+ Tariff: Tariff" style="text;strokeColor=none;fillColor=none;align=left;verticalAlign=top;spacingLeft=4;spacingRight=4;overflow=hidden;rotatable=0;points=[[0,0.5],[1,0.5]];portConstraint=eastwest;whiteSpace=wrap;html=1;" parent="ZygjGXT3M7OOx8VJVT66-5" vertex="1">
          <mxGeometry y="312" width="190" height="26" as="geometry" />
        </mxCell>
        <mxCell id="ZygjGXT3M7OOx8VJVT66-9" value="Account" style="swimlane;fontStyle=1;childLayout=stackLayout;horizontal=1;startSize=26;fillColor=none;horizontalStack=0;resizeParent=1;resizeParentMax=0;resizeLast=0;collapsible=1;marginBottom=0;whiteSpace=wrap;html=1;fontSize=12;" parent="WIyWlLk6GJQsqaUBKTNV-1" vertex="1">
          <mxGeometry x="620" y="360" width="170" height="156" as="geometry" />
        </mxCell>
        <mxCell id="ZygjGXT3M7OOx8VJVT66-10" value="+ AccountID: int (id)" style="text;strokeColor=none;fillColor=none;align=left;verticalAlign=top;spacingLeft=4;spacingRight=4;overflow=hidden;rotatable=0;points=[[0,0.5],[1,0.5]];portConstraint=eastwest;whiteSpace=wrap;html=1;" parent="ZygjGXT3M7OOx8VJVT66-9" vertex="1">
          <mxGeometry y="26" width="170" height="26" as="geometry" />
        </mxCell>
        <mxCell id="ZygjGXT3M7OOx8VJVT66-11" value="+ DispatcherID: int" style="text;strokeColor=none;fillColor=none;align=left;verticalAlign=top;spacingLeft=4;spacingRight=4;overflow=hidden;rotatable=0;points=[[0,0.5],[1,0.5]];portConstraint=eastwest;whiteSpace=wrap;html=1;" parent="ZygjGXT3M7OOx8VJVT66-9" vertex="1">
          <mxGeometry y="52" width="170" height="26" as="geometry" />
        </mxCell>
        <mxCell id="ZygjGXT3M7OOx8VJVT66-12" value="+ InstallatorID: int" style="text;strokeColor=none;fillColor=none;align=left;verticalAlign=top;spacingLeft=4;spacingRight=4;overflow=hidden;rotatable=0;points=[[0,0.5],[1,0.5]];portConstraint=eastwest;whiteSpace=wrap;html=1;" parent="ZygjGXT3M7OOx8VJVT66-9" vertex="1">
          <mxGeometry y="78" width="170" height="26" as="geometry" />
        </mxCell>
        <mxCell id="ZygjGXT3M7OOx8VJVT66-59" value="+ LeadID: int" style="text;strokeColor=none;fillColor=none;align=left;verticalAlign=top;spacingLeft=4;spacingRight=4;overflow=hidden;rotatable=0;points=[[0,0.5],[1,0.5]];portConstraint=eastwest;whiteSpace=wrap;html=1;" parent="ZygjGXT3M7OOx8VJVT66-9" vertex="1">
          <mxGeometry y="104" width="170" height="26" as="geometry" />
        </mxCell>
        <mxCell id="ZygjGXT3M7OOx8VJVT66-58" value="+ Password: string" style="text;strokeColor=none;fillColor=none;align=left;verticalAlign=top;spacingLeft=4;spacingRight=4;overflow=hidden;rotatable=0;points=[[0,0.5],[1,0.5]];portConstraint=eastwest;whiteSpace=wrap;html=1;" parent="ZygjGXT3M7OOx8VJVT66-9" vertex="1">
          <mxGeometry y="130" width="170" height="26" as="geometry" />
        </mxCell>
        <mxCell id="ZygjGXT3M7OOx8VJVT66-13" value="Dispatcher" style="swimlane;fontStyle=1;childLayout=stackLayout;horizontal=1;startSize=26;fillColor=none;horizontalStack=0;resizeParent=1;resizeParentMax=0;resizeLast=0;collapsible=1;marginBottom=0;whiteSpace=wrap;html=1;fontSize=12;" parent="WIyWlLk6GJQsqaUBKTNV-1" vertex="1">
          <mxGeometry x="910" y="560" width="190" height="234" as="geometry" />
        </mxCell>
        <mxCell id="ZygjGXT3M7OOx8VJVT66-14" value="+ DispatcherID: int (id)" style="text;strokeColor=none;fillColor=none;align=left;verticalAlign=top;spacingLeft=4;spacingRight=4;overflow=hidden;rotatable=0;points=[[0,0.5],[1,0.5]];portConstraint=eastwest;whiteSpace=wrap;html=1;" parent="ZygjGXT3M7OOx8VJVT66-13" vertex="1">
          <mxGeometry y="26" width="190" height="26" as="geometry" />
        </mxCell>
        <mxCell id="ZygjGXT3M7OOx8VJVT66-15" value="+ FirstName: string" style="text;strokeColor=none;fillColor=none;align=left;verticalAlign=top;spacingLeft=4;spacingRight=4;overflow=hidden;rotatable=0;points=[[0,0.5],[1,0.5]];portConstraint=eastwest;whiteSpace=wrap;html=1;" parent="ZygjGXT3M7OOx8VJVT66-13" vertex="1">
          <mxGeometry y="52" width="190" height="26" as="geometry" />
        </mxCell>
        <mxCell id="ZygjGXT3M7OOx8VJVT66-16" value="+ MiddleName: string" style="text;strokeColor=none;fillColor=none;align=left;verticalAlign=top;spacingLeft=4;spacingRight=4;overflow=hidden;rotatable=0;points=[[0,0.5],[1,0.5]];portConstraint=eastwest;whiteSpace=wrap;html=1;" parent="ZygjGXT3M7OOx8VJVT66-13" vertex="1">
          <mxGeometry y="78" width="190" height="26" as="geometry" />
        </mxCell>
        <mxCell id="ZygjGXT3M7OOx8VJVT66-64" value="+ LastName: string" style="text;strokeColor=none;fillColor=none;align=left;verticalAlign=top;spacingLeft=4;spacingRight=4;overflow=hidden;rotatable=0;points=[[0,0.5],[1,0.5]];portConstraint=eastwest;whiteSpace=wrap;html=1;" parent="ZygjGXT3M7OOx8VJVT66-13" vertex="1">
          <mxGeometry y="104" width="190" height="26" as="geometry" />
        </mxCell>
        <mxCell id="ZygjGXT3M7OOx8VJVT66-63" value="+ Gender: string" style="text;strokeColor=none;fillColor=none;align=left;verticalAlign=top;spacingLeft=4;spacingRight=4;overflow=hidden;rotatable=0;points=[[0,0.5],[1,0.5]];portConstraint=eastwest;whiteSpace=wrap;html=1;" parent="ZygjGXT3M7OOx8VJVT66-13" vertex="1">
          <mxGeometry y="130" width="190" height="26" as="geometry" />
        </mxCell>
        <mxCell id="ZygjGXT3M7OOx8VJVT66-62" value="+ PhoneNumber: string" style="text;strokeColor=none;fillColor=none;align=left;verticalAlign=top;spacingLeft=4;spacingRight=4;overflow=hidden;rotatable=0;points=[[0,0.5],[1,0.5]];portConstraint=eastwest;whiteSpace=wrap;html=1;" parent="ZygjGXT3M7OOx8VJVT66-13" vertex="1">
          <mxGeometry y="156" width="190" height="26" as="geometry" />
        </mxCell>
        <mxCell id="ZygjGXT3M7OOx8VJVT66-61" value="+ Email: string" style="text;strokeColor=none;fillColor=none;align=left;verticalAlign=top;spacingLeft=4;spacingRight=4;overflow=hidden;rotatable=0;points=[[0,0.5],[1,0.5]];portConstraint=eastwest;whiteSpace=wrap;html=1;" parent="ZygjGXT3M7OOx8VJVT66-13" vertex="1">
          <mxGeometry y="182" width="190" height="26" as="geometry" />
        </mxCell>
        <mxCell id="ZygjGXT3M7OOx8VJVT66-60" value="+ Account: Account" style="text;strokeColor=none;fillColor=none;align=left;verticalAlign=top;spacingLeft=4;spacingRight=4;overflow=hidden;rotatable=0;points=[[0,0.5],[1,0.5]];portConstraint=eastwest;whiteSpace=wrap;html=1;" parent="ZygjGXT3M7OOx8VJVT66-13" vertex="1">
          <mxGeometry y="208" width="190" height="26" as="geometry" />
        </mxCell>
        <mxCell id="ZygjGXT3M7OOx8VJVT66-17" value="Installator" style="swimlane;fontStyle=1;childLayout=stackLayout;horizontal=1;startSize=26;fillColor=none;horizontalStack=0;resizeParent=1;resizeParentMax=0;resizeLast=0;collapsible=1;marginBottom=0;whiteSpace=wrap;html=1;fontSize=12;" parent="WIyWlLk6GJQsqaUBKTNV-1" vertex="1">
          <mxGeometry x="530" y="600" width="240" height="416" as="geometry" />
        </mxCell>
        <mxCell id="ZygjGXT3M7OOx8VJVT66-18" value="+ InstallatorID: int (id)" style="text;strokeColor=none;fillColor=none;align=left;verticalAlign=top;spacingLeft=4;spacingRight=4;overflow=hidden;rotatable=0;points=[[0,0.5],[1,0.5]];portConstraint=eastwest;whiteSpace=wrap;html=1;" parent="ZygjGXT3M7OOx8VJVT66-17" vertex="1">
          <mxGeometry y="26" width="240" height="26" as="geometry" />
        </mxCell>
        <mxCell id="ZygjGXT3M7OOx8VJVT66-76" value="+ LeadID: int" style="text;strokeColor=none;fillColor=none;align=left;verticalAlign=top;spacingLeft=4;spacingRight=4;overflow=hidden;rotatable=0;points=[[0,0.5],[1,0.5]];portConstraint=eastwest;whiteSpace=wrap;html=1;" parent="ZygjGXT3M7OOx8VJVT66-17" vertex="1">
          <mxGeometry y="52" width="240" height="26" as="geometry" />
        </mxCell>
        <mxCell id="ZygjGXT3M7OOx8VJVT66-75" value="+ FirstName: string" style="text;strokeColor=none;fillColor=none;align=left;verticalAlign=top;spacingLeft=4;spacingRight=4;overflow=hidden;rotatable=0;points=[[0,0.5],[1,0.5]];portConstraint=eastwest;whiteSpace=wrap;html=1;" parent="ZygjGXT3M7OOx8VJVT66-17" vertex="1">
          <mxGeometry y="78" width="240" height="26" as="geometry" />
        </mxCell>
        <mxCell id="ZygjGXT3M7OOx8VJVT66-74" value="+ MiddleName: string" style="text;strokeColor=none;fillColor=none;align=left;verticalAlign=top;spacingLeft=4;spacingRight=4;overflow=hidden;rotatable=0;points=[[0,0.5],[1,0.5]];portConstraint=eastwest;whiteSpace=wrap;html=1;" parent="ZygjGXT3M7OOx8VJVT66-17" vertex="1">
          <mxGeometry y="104" width="240" height="26" as="geometry" />
        </mxCell>
        <mxCell id="ZygjGXT3M7OOx8VJVT66-73" value="+ LastName: string" style="text;strokeColor=none;fillColor=none;align=left;verticalAlign=top;spacingLeft=4;spacingRight=4;overflow=hidden;rotatable=0;points=[[0,0.5],[1,0.5]];portConstraint=eastwest;whiteSpace=wrap;html=1;" parent="ZygjGXT3M7OOx8VJVT66-17" vertex="1">
          <mxGeometry y="130" width="240" height="26" as="geometry" />
        </mxCell>
        <mxCell id="ZygjGXT3M7OOx8VJVT66-72" value="+ Gender: string" style="text;strokeColor=none;fillColor=none;align=left;verticalAlign=top;spacingLeft=4;spacingRight=4;overflow=hidden;rotatable=0;points=[[0,0.5],[1,0.5]];portConstraint=eastwest;whiteSpace=wrap;html=1;" parent="ZygjGXT3M7OOx8VJVT66-17" vertex="1">
          <mxGeometry y="156" width="240" height="26" as="geometry" />
        </mxCell>
        <mxCell id="ZygjGXT3M7OOx8VJVT66-71" value="+ PhoneNumber: string" style="text;strokeColor=none;fillColor=none;align=left;verticalAlign=top;spacingLeft=4;spacingRight=4;overflow=hidden;rotatable=0;points=[[0,0.5],[1,0.5]];portConstraint=eastwest;whiteSpace=wrap;html=1;" parent="ZygjGXT3M7OOx8VJVT66-17" vertex="1">
          <mxGeometry y="182" width="240" height="26" as="geometry" />
        </mxCell>
        <mxCell id="ZygjGXT3M7OOx8VJVT66-70" value="+ Email: string" style="text;strokeColor=none;fillColor=none;align=left;verticalAlign=top;spacingLeft=4;spacingRight=4;overflow=hidden;rotatable=0;points=[[0,0.5],[1,0.5]];portConstraint=eastwest;whiteSpace=wrap;html=1;" parent="ZygjGXT3M7OOx8VJVT66-17" vertex="1">
          <mxGeometry y="208" width="240" height="26" as="geometry" />
        </mxCell>
        <mxCell id="ZygjGXT3M7OOx8VJVT66-69" value="+ isArchived: bool" style="text;strokeColor=none;fillColor=none;align=left;verticalAlign=top;spacingLeft=4;spacingRight=4;overflow=hidden;rotatable=0;points=[[0,0.5],[1,0.5]];portConstraint=eastwest;whiteSpace=wrap;html=1;" parent="ZygjGXT3M7OOx8VJVT66-17" vertex="1">
          <mxGeometry y="234" width="240" height="26" as="geometry" />
        </mxCell>
        <mxCell id="ZygjGXT3M7OOx8VJVT66-68" value="+ isActive: bool" style="text;strokeColor=none;fillColor=none;align=left;verticalAlign=top;spacingLeft=4;spacingRight=4;overflow=hidden;rotatable=0;points=[[0,0.5],[1,0.5]];portConstraint=eastwest;whiteSpace=wrap;html=1;" parent="ZygjGXT3M7OOx8VJVT66-17" vertex="1">
          <mxGeometry y="260" width="240" height="26" as="geometry" />
        </mxCell>
        <mxCell id="ZygjGXT3M7OOx8VJVT66-67" value="+ RemovalDate: DateOnly" style="text;strokeColor=none;fillColor=none;align=left;verticalAlign=top;spacingLeft=4;spacingRight=4;overflow=hidden;rotatable=0;points=[[0,0.5],[1,0.5]];portConstraint=eastwest;whiteSpace=wrap;html=1;" parent="ZygjGXT3M7OOx8VJVT66-17" vertex="1">
          <mxGeometry y="286" width="240" height="26" as="geometry" />
        </mxCell>
        <mxCell id="ZygjGXT3M7OOx8VJVT66-66" value="+ Account: Account" style="text;strokeColor=none;fillColor=none;align=left;verticalAlign=top;spacingLeft=4;spacingRight=4;overflow=hidden;rotatable=0;points=[[0,0.5],[1,0.5]];portConstraint=eastwest;whiteSpace=wrap;html=1;" parent="ZygjGXT3M7OOx8VJVT66-17" vertex="1">
          <mxGeometry y="312" width="240" height="26" as="geometry" />
        </mxCell>
        <mxCell id="ZygjGXT3M7OOx8VJVT66-65" value="+ Reports: List&amp;lt;Report&amp;gt;" style="text;strokeColor=none;fillColor=none;align=left;verticalAlign=top;spacingLeft=4;spacingRight=4;overflow=hidden;rotatable=0;points=[[0,0.5],[1,0.5]];portConstraint=eastwest;whiteSpace=wrap;html=1;" parent="ZygjGXT3M7OOx8VJVT66-17" vertex="1">
          <mxGeometry y="338" width="240" height="26" as="geometry" />
        </mxCell>
        <mxCell id="ZygjGXT3M7OOx8VJVT66-19" value="+ Requests: List&amp;lt;Request&amp;gt;" style="text;strokeColor=none;fillColor=none;align=left;verticalAlign=top;spacingLeft=4;spacingRight=4;overflow=hidden;rotatable=0;points=[[0,0.5],[1,0.5]];portConstraint=eastwest;whiteSpace=wrap;html=1;" parent="ZygjGXT3M7OOx8VJVT66-17" vertex="1">
          <mxGeometry y="364" width="240" height="26" as="geometry" />
        </mxCell>
        <mxCell id="ZygjGXT3M7OOx8VJVT66-20" value="+ Messages: List&amp;lt;Messages&amp;gt;" style="text;strokeColor=none;fillColor=none;align=left;verticalAlign=top;spacingLeft=4;spacingRight=4;overflow=hidden;rotatable=0;points=[[0,0.5],[1,0.5]];portConstraint=eastwest;whiteSpace=wrap;html=1;" parent="ZygjGXT3M7OOx8VJVT66-17" vertex="1">
          <mxGeometry y="390" width="240" height="26" as="geometry" />
        </mxCell>
        <mxCell id="ZygjGXT3M7OOx8VJVT66-21" value="Lead" style="swimlane;fontStyle=1;childLayout=stackLayout;horizontal=1;startSize=26;fillColor=none;horizontalStack=0;resizeParent=1;resizeParentMax=0;resizeLast=0;collapsible=1;marginBottom=0;whiteSpace=wrap;html=1;fontSize=12;" parent="WIyWlLk6GJQsqaUBKTNV-1" vertex="1">
          <mxGeometry x="210" y="590" width="180" height="312" as="geometry" />
        </mxCell>
        <mxCell id="ZygjGXT3M7OOx8VJVT66-22" value="+ LeadID: int (id)" style="text;strokeColor=none;fillColor=none;align=left;verticalAlign=top;spacingLeft=4;spacingRight=4;overflow=hidden;rotatable=0;points=[[0,0.5],[1,0.5]];portConstraint=eastwest;whiteSpace=wrap;html=1;" parent="ZygjGXT3M7OOx8VJVT66-21" vertex="1">
          <mxGeometry y="26" width="180" height="26" as="geometry" />
        </mxCell>
        <mxCell id="ZygjGXT3M7OOx8VJVT66-23" value="+ FirstName: string" style="text;strokeColor=none;fillColor=none;align=left;verticalAlign=top;spacingLeft=4;spacingRight=4;overflow=hidden;rotatable=0;points=[[0,0.5],[1,0.5]];portConstraint=eastwest;whiteSpace=wrap;html=1;" parent="ZygjGXT3M7OOx8VJVT66-21" vertex="1">
          <mxGeometry y="52" width="180" height="26" as="geometry" />
        </mxCell>
        <mxCell id="ZygjGXT3M7OOx8VJVT66-24" value="+ MiddleName: string" style="text;strokeColor=none;fillColor=none;align=left;verticalAlign=top;spacingLeft=4;spacingRight=4;overflow=hidden;rotatable=0;points=[[0,0.5],[1,0.5]];portConstraint=eastwest;whiteSpace=wrap;html=1;" parent="ZygjGXT3M7OOx8VJVT66-21" vertex="1">
          <mxGeometry y="78" width="180" height="26" as="geometry" />
        </mxCell>
        <mxCell id="ZygjGXT3M7OOx8VJVT66-77" value="+ LastName: string" style="text;strokeColor=none;fillColor=none;align=left;verticalAlign=top;spacingLeft=4;spacingRight=4;overflow=hidden;rotatable=0;points=[[0,0.5],[1,0.5]];portConstraint=eastwest;whiteSpace=wrap;html=1;" parent="ZygjGXT3M7OOx8VJVT66-21" vertex="1">
          <mxGeometry y="104" width="180" height="26" as="geometry" />
        </mxCell>
        <mxCell id="ZygjGXT3M7OOx8VJVT66-78" value="+ Gender: string" style="text;strokeColor=none;fillColor=none;align=left;verticalAlign=top;spacingLeft=4;spacingRight=4;overflow=hidden;rotatable=0;points=[[0,0.5],[1,0.5]];portConstraint=eastwest;whiteSpace=wrap;html=1;" parent="ZygjGXT3M7OOx8VJVT66-21" vertex="1">
          <mxGeometry y="130" width="180" height="26" as="geometry" />
        </mxCell>
        <mxCell id="ZygjGXT3M7OOx8VJVT66-79" value="+ PhoneNumber: string" style="text;strokeColor=none;fillColor=none;align=left;verticalAlign=top;spacingLeft=4;spacingRight=4;overflow=hidden;rotatable=0;points=[[0,0.5],[1,0.5]];portConstraint=eastwest;whiteSpace=wrap;html=1;" parent="ZygjGXT3M7OOx8VJVT66-21" vertex="1">
          <mxGeometry y="156" width="180" height="26" as="geometry" />
        </mxCell>
        <mxCell id="ZygjGXT3M7OOx8VJVT66-80" value="+ Email: string" style="text;strokeColor=none;fillColor=none;align=left;verticalAlign=top;spacingLeft=4;spacingRight=4;overflow=hidden;rotatable=0;points=[[0,0.5],[1,0.5]];portConstraint=eastwest;whiteSpace=wrap;html=1;" parent="ZygjGXT3M7OOx8VJVT66-21" vertex="1">
          <mxGeometry y="182" width="180" height="26" as="geometry" />
        </mxCell>
        <mxCell id="ZygjGXT3M7OOx8VJVT66-81" value="+ Region: string" style="text;strokeColor=none;fillColor=none;align=left;verticalAlign=top;spacingLeft=4;spacingRight=4;overflow=hidden;rotatable=0;points=[[0,0.5],[1,0.5]];portConstraint=eastwest;whiteSpace=wrap;html=1;" parent="ZygjGXT3M7OOx8VJVT66-21" vertex="1">
          <mxGeometry y="208" width="180" height="26" as="geometry" />
        </mxCell>
        <mxCell id="ZygjGXT3M7OOx8VJVT66-82" value="+ Account: Account" style="text;strokeColor=none;fillColor=none;align=left;verticalAlign=top;spacingLeft=4;spacingRight=4;overflow=hidden;rotatable=0;points=[[0,0.5],[1,0.5]];portConstraint=eastwest;whiteSpace=wrap;html=1;" parent="ZygjGXT3M7OOx8VJVT66-21" vertex="1">
          <mxGeometry y="234" width="180" height="26" as="geometry" />
        </mxCell>
        <mxCell id="ZygjGXT3M7OOx8VJVT66-83" value="+ Installators: List&amp;lt;Installator&amp;gt;" style="text;strokeColor=none;fillColor=none;align=left;verticalAlign=top;spacingLeft=4;spacingRight=4;overflow=hidden;rotatable=0;points=[[0,0.5],[1,0.5]];portConstraint=eastwest;whiteSpace=wrap;html=1;" parent="ZygjGXT3M7OOx8VJVT66-21" vertex="1">
          <mxGeometry y="260" width="180" height="26" as="geometry" />
        </mxCell>
        <mxCell id="ZygjGXT3M7OOx8VJVT66-84" value="+ Messages: List&amp;lt;Message&amp;gt;" style="text;strokeColor=none;fillColor=none;align=left;verticalAlign=top;spacingLeft=4;spacingRight=4;overflow=hidden;rotatable=0;points=[[0,0.5],[1,0.5]];portConstraint=eastwest;whiteSpace=wrap;html=1;" parent="ZygjGXT3M7OOx8VJVT66-21" vertex="1">
          <mxGeometry y="286" width="180" height="26" as="geometry" />
        </mxCell>
        <mxCell id="ZygjGXT3M7OOx8VJVT66-25" value="Message" style="swimlane;fontStyle=1;childLayout=stackLayout;horizontal=1;startSize=26;fillColor=none;horizontalStack=0;resizeParent=1;resizeParentMax=0;resizeLast=0;collapsible=1;marginBottom=0;whiteSpace=wrap;html=1;fontSize=12;" parent="WIyWlLk6GJQsqaUBKTNV-1" vertex="1">
          <mxGeometry x="180" y="987" width="200" height="182" as="geometry" />
        </mxCell>
        <mxCell id="ZygjGXT3M7OOx8VJVT66-26" value="+ MessageID: int (id)" style="text;strokeColor=none;fillColor=none;align=left;verticalAlign=top;spacingLeft=4;spacingRight=4;overflow=hidden;rotatable=0;points=[[0,0.5],[1,0.5]];portConstraint=eastwest;whiteSpace=wrap;html=1;" parent="ZygjGXT3M7OOx8VJVT66-25" vertex="1">
          <mxGeometry y="26" width="200" height="26" as="geometry" />
        </mxCell>
        <mxCell id="ZygjGXT3M7OOx8VJVT66-87" value="+ LeadID: int" style="text;strokeColor=none;fillColor=none;align=left;verticalAlign=top;spacingLeft=4;spacingRight=4;overflow=hidden;rotatable=0;points=[[0,0.5],[1,0.5]];portConstraint=eastwest;whiteSpace=wrap;html=1;" parent="ZygjGXT3M7OOx8VJVT66-25" vertex="1">
          <mxGeometry y="52" width="200" height="26" as="geometry" />
        </mxCell>
        <mxCell id="ZygjGXT3M7OOx8VJVT66-86" value="+ InstallatorID: int" style="text;strokeColor=none;fillColor=none;align=left;verticalAlign=top;spacingLeft=4;spacingRight=4;overflow=hidden;rotatable=0;points=[[0,0.5],[1,0.5]];portConstraint=eastwest;whiteSpace=wrap;html=1;" parent="ZygjGXT3M7OOx8VJVT66-25" vertex="1">
          <mxGeometry y="78" width="200" height="26" as="geometry" />
        </mxCell>
        <mxCell id="ZygjGXT3M7OOx8VJVT66-85" value="+ Text: string" style="text;strokeColor=none;fillColor=none;align=left;verticalAlign=top;spacingLeft=4;spacingRight=4;overflow=hidden;rotatable=0;points=[[0,0.5],[1,0.5]];portConstraint=eastwest;whiteSpace=wrap;html=1;" parent="ZygjGXT3M7OOx8VJVT66-25" vertex="1">
          <mxGeometry y="104" width="200" height="26" as="geometry" />
        </mxCell>
        <mxCell id="ZygjGXT3M7OOx8VJVT66-27" value="+ IsRead: bool" style="text;strokeColor=none;fillColor=none;align=left;verticalAlign=top;spacingLeft=4;spacingRight=4;overflow=hidden;rotatable=0;points=[[0,0.5],[1,0.5]];portConstraint=eastwest;whiteSpace=wrap;html=1;" parent="ZygjGXT3M7OOx8VJVT66-25" vertex="1">
          <mxGeometry y="130" width="200" height="26" as="geometry" />
        </mxCell>
        <mxCell id="ZygjGXT3M7OOx8VJVT66-28" value="+ SendingTime: DateTime" style="text;strokeColor=none;fillColor=none;align=left;verticalAlign=top;spacingLeft=4;spacingRight=4;overflow=hidden;rotatable=0;points=[[0,0.5],[1,0.5]];portConstraint=eastwest;whiteSpace=wrap;html=1;" parent="ZygjGXT3M7OOx8VJVT66-25" vertex="1">
          <mxGeometry y="156" width="200" height="26" as="geometry" />
        </mxCell>
        <mxCell id="ZygjGXT3M7OOx8VJVT66-29" value="Report" style="swimlane;fontStyle=1;childLayout=stackLayout;horizontal=1;startSize=26;fillColor=none;horizontalStack=0;resizeParent=1;resizeParentMax=0;resizeLast=0;collapsible=1;marginBottom=0;whiteSpace=wrap;html=1;fontSize=12;" parent="WIyWlLk6GJQsqaUBKTNV-1" vertex="1">
          <mxGeometry x="530" y="1120" width="180" height="156" as="geometry" />
        </mxCell>
        <mxCell id="ZygjGXT3M7OOx8VJVT66-30" value="+ ReportID: int (id)" style="text;strokeColor=none;fillColor=none;align=left;verticalAlign=top;spacingLeft=4;spacingRight=4;overflow=hidden;rotatable=0;points=[[0,0.5],[1,0.5]];portConstraint=eastwest;whiteSpace=wrap;html=1;" parent="ZygjGXT3M7OOx8VJVT66-29" vertex="1">
          <mxGeometry y="26" width="180" height="26" as="geometry" />
        </mxCell>
        <mxCell id="ZygjGXT3M7OOx8VJVT66-31" value="+ RequestID: int" style="text;strokeColor=none;fillColor=none;align=left;verticalAlign=top;spacingLeft=4;spacingRight=4;overflow=hidden;rotatable=0;points=[[0,0.5],[1,0.5]];portConstraint=eastwest;whiteSpace=wrap;html=1;" parent="ZygjGXT3M7OOx8VJVT66-29" vertex="1">
          <mxGeometry y="52" width="180" height="26" as="geometry" />
        </mxCell>
        <mxCell id="ZygjGXT3M7OOx8VJVT66-89" value="+ Status: string" style="text;strokeColor=none;fillColor=none;align=left;verticalAlign=top;spacingLeft=4;spacingRight=4;overflow=hidden;rotatable=0;points=[[0,0.5],[1,0.5]];portConstraint=eastwest;whiteSpace=wrap;html=1;" parent="ZygjGXT3M7OOx8VJVT66-29" vertex="1">
          <mxGeometry y="78" width="180" height="26" as="geometry" />
        </mxCell>
        <mxCell id="ZygjGXT3M7OOx8VJVT66-88" value="+ Commentary: string" style="text;strokeColor=none;fillColor=none;align=left;verticalAlign=top;spacingLeft=4;spacingRight=4;overflow=hidden;rotatable=0;points=[[0,0.5],[1,0.5]];portConstraint=eastwest;whiteSpace=wrap;html=1;" parent="ZygjGXT3M7OOx8VJVT66-29" vertex="1">
          <mxGeometry y="104" width="180" height="26" as="geometry" />
        </mxCell>
        <mxCell id="ZygjGXT3M7OOx8VJVT66-32" value="+ Request: Request" style="text;strokeColor=none;fillColor=none;align=left;verticalAlign=top;spacingLeft=4;spacingRight=4;overflow=hidden;rotatable=0;points=[[0,0.5],[1,0.5]];portConstraint=eastwest;whiteSpace=wrap;html=1;" parent="ZygjGXT3M7OOx8VJVT66-29" vertex="1">
          <mxGeometry y="130" width="180" height="26" as="geometry" />
        </mxCell>
        <mxCell id="ZygjGXT3M7OOx8VJVT66-33" value="Request" style="swimlane;fontStyle=1;childLayout=stackLayout;horizontal=1;startSize=26;fillColor=none;horizontalStack=0;resizeParent=1;resizeParentMax=0;resizeLast=0;collapsible=1;marginBottom=0;whiteSpace=wrap;html=1;fontSize=12;" parent="WIyWlLk6GJQsqaUBKTNV-1" vertex="1">
          <mxGeometry x="910" y="880" width="210" height="260" as="geometry" />
        </mxCell>
        <mxCell id="ZygjGXT3M7OOx8VJVT66-34" value="+ RequestID: int (id)" style="text;strokeColor=none;fillColor=none;align=left;verticalAlign=top;spacingLeft=4;spacingRight=4;overflow=hidden;rotatable=0;points=[[0,0.5],[1,0.5]];portConstraint=eastwest;whiteSpace=wrap;html=1;" parent="ZygjGXT3M7OOx8VJVT66-33" vertex="1">
          <mxGeometry y="26" width="210" height="26" as="geometry" />
        </mxCell>
        <mxCell id="ZygjGXT3M7OOx8VJVT66-35" value="+ InstallatorID: int" style="text;strokeColor=none;fillColor=none;align=left;verticalAlign=top;spacingLeft=4;spacingRight=4;overflow=hidden;rotatable=0;points=[[0,0.5],[1,0.5]];portConstraint=eastwest;whiteSpace=wrap;html=1;" parent="ZygjGXT3M7OOx8VJVT66-33" vertex="1">
          <mxGeometry y="52" width="210" height="26" as="geometry" />
        </mxCell>
        <mxCell id="ZygjGXT3M7OOx8VJVT66-36" value="+ AbonentID: int" style="text;strokeColor=none;fillColor=none;align=left;verticalAlign=top;spacingLeft=4;spacingRight=4;overflow=hidden;rotatable=0;points=[[0,0.5],[1,0.5]];portConstraint=eastwest;whiteSpace=wrap;html=1;" parent="ZygjGXT3M7OOx8VJVT66-33" vertex="1">
          <mxGeometry y="78" width="210" height="26" as="geometry" />
        </mxCell>
        <mxCell id="ZygjGXT3M7OOx8VJVT66-90" value="+ Type: string" style="text;strokeColor=none;fillColor=none;align=left;verticalAlign=top;spacingLeft=4;spacingRight=4;overflow=hidden;rotatable=0;points=[[0,0.5],[1,0.5]];portConstraint=eastwest;whiteSpace=wrap;html=1;" parent="ZygjGXT3M7OOx8VJVT66-33" vertex="1">
          <mxGeometry y="104" width="210" height="26" as="geometry" />
        </mxCell>
        <mxCell id="ZygjGXT3M7OOx8VJVT66-91" value="+ Description: string" style="text;strokeColor=none;fillColor=none;align=left;verticalAlign=top;spacingLeft=4;spacingRight=4;overflow=hidden;rotatable=0;points=[[0,0.5],[1,0.5]];portConstraint=eastwest;whiteSpace=wrap;html=1;" parent="ZygjGXT3M7OOx8VJVT66-33" vertex="1">
          <mxGeometry y="130" width="210" height="26" as="geometry" />
        </mxCell>
        <mxCell id="ZygjGXT3M7OOx8VJVT66-92" value="+ isDelayed: bool" style="text;strokeColor=none;fillColor=none;align=left;verticalAlign=top;spacingLeft=4;spacingRight=4;overflow=hidden;rotatable=0;points=[[0,0.5],[1,0.5]];portConstraint=eastwest;whiteSpace=wrap;html=1;" parent="ZygjGXT3M7OOx8VJVT66-33" vertex="1">
          <mxGeometry y="156" width="210" height="26" as="geometry" />
        </mxCell>
        <mxCell id="ZygjGXT3M7OOx8VJVT66-93" value="+ Created: DateTime" style="text;strokeColor=none;fillColor=none;align=left;verticalAlign=top;spacingLeft=4;spacingRight=4;overflow=hidden;rotatable=0;points=[[0,0.5],[1,0.5]];portConstraint=eastwest;whiteSpace=wrap;html=1;" parent="ZygjGXT3M7OOx8VJVT66-33" vertex="1">
          <mxGeometry y="182" width="210" height="26" as="geometry" />
        </mxCell>
        <mxCell id="ZygjGXT3M7OOx8VJVT66-94" value="+ Scheduled: DateTime" style="text;strokeColor=none;fillColor=none;align=left;verticalAlign=top;spacingLeft=4;spacingRight=4;overflow=hidden;rotatable=0;points=[[0,0.5],[1,0.5]];portConstraint=eastwest;whiteSpace=wrap;html=1;" parent="ZygjGXT3M7OOx8VJVT66-33" vertex="1">
          <mxGeometry y="208" width="210" height="26" as="geometry" />
        </mxCell>
        <mxCell id="ZygjGXT3M7OOx8VJVT66-95" value="+ Closed: DateTime" style="text;strokeColor=none;fillColor=none;align=left;verticalAlign=top;spacingLeft=4;spacingRight=4;overflow=hidden;rotatable=0;points=[[0,0.5],[1,0.5]];portConstraint=eastwest;whiteSpace=wrap;html=1;" parent="ZygjGXT3M7OOx8VJVT66-33" vertex="1">
          <mxGeometry y="234" width="210" height="26" as="geometry" />
        </mxCell>
        <mxCell id="ZygjGXT3M7OOx8VJVT66-37" value="Service" style="swimlane;fontStyle=1;childLayout=stackLayout;horizontal=1;startSize=26;fillColor=none;horizontalStack=0;resizeParent=1;resizeParentMax=0;resizeLast=0;collapsible=1;marginBottom=0;whiteSpace=wrap;html=1;fontSize=12;" parent="WIyWlLk6GJQsqaUBKTNV-1" vertex="1">
          <mxGeometry x="-50" y="270" width="190" height="102" as="geometry" />
        </mxCell>
        <mxCell id="ZygjGXT3M7OOx8VJVT66-38" value="+ ServiceID: int (id)" style="text;strokeColor=none;fillColor=none;align=left;verticalAlign=top;spacingLeft=4;spacingRight=4;overflow=hidden;rotatable=0;points=[[0,0.5],[1,0.5]];portConstraint=eastwest;whiteSpace=wrap;html=1;" parent="ZygjGXT3M7OOx8VJVT66-37" vertex="1">
          <mxGeometry y="26" width="190" height="26" as="geometry" />
        </mxCell>
        <mxCell id="ZygjGXT3M7OOx8VJVT66-39" value="+ ServiceName: string" style="text;strokeColor=none;fillColor=none;align=left;verticalAlign=top;spacingLeft=4;spacingRight=4;overflow=hidden;rotatable=0;points=[[0,0.5],[1,0.5]];portConstraint=eastwest;whiteSpace=wrap;html=1;" parent="ZygjGXT3M7OOx8VJVT66-37" vertex="1">
          <mxGeometry y="52" width="190" height="26" as="geometry" />
        </mxCell>
        <mxCell id="ZygjGXT3M7OOx8VJVT66-40" value="+ AdditionalPrice: decimal" style="text;strokeColor=none;fillColor=none;align=left;verticalAlign=top;spacingLeft=4;spacingRight=4;overflow=hidden;rotatable=0;points=[[0,0.5],[1,0.5]];portConstraint=eastwest;whiteSpace=wrap;html=1;" parent="ZygjGXT3M7OOx8VJVT66-37" vertex="1">
          <mxGeometry y="78" width="190" height="24" as="geometry" />
        </mxCell>
        <mxCell id="ZygjGXT3M7OOx8VJVT66-41" value="Tariff" style="swimlane;fontStyle=1;childLayout=stackLayout;horizontal=1;startSize=26;fillColor=none;horizontalStack=0;resizeParent=1;resizeParentMax=0;resizeLast=0;collapsible=1;marginBottom=0;whiteSpace=wrap;html=1;fontSize=12;" parent="WIyWlLk6GJQsqaUBKTNV-1" vertex="1">
          <mxGeometry x="260" y="380" width="172" height="130" as="geometry" />
        </mxCell>
        <mxCell id="ZygjGXT3M7OOx8VJVT66-42" value="+ TariffID: int (id)" style="text;strokeColor=none;fillColor=none;align=left;verticalAlign=top;spacingLeft=4;spacingRight=4;overflow=hidden;rotatable=0;points=[[0,0.5],[1,0.5]];portConstraint=eastwest;whiteSpace=wrap;html=1;" parent="ZygjGXT3M7OOx8VJVT66-41" vertex="1">
          <mxGeometry y="26" width="172" height="26" as="geometry" />
        </mxCell>
        <mxCell id="ZygjGXT3M7OOx8VJVT66-43" value="+ TariffName: string" style="text;strokeColor=none;fillColor=none;align=left;verticalAlign=top;spacingLeft=4;spacingRight=4;overflow=hidden;rotatable=0;points=[[0,0.5],[1,0.5]];portConstraint=eastwest;whiteSpace=wrap;html=1;" parent="ZygjGXT3M7OOx8VJVT66-41" vertex="1">
          <mxGeometry y="52" width="172" height="26" as="geometry" />
        </mxCell>
        <mxCell id="ZygjGXT3M7OOx8VJVT66-44" value="+ TariffPrice: decimal" style="text;strokeColor=none;fillColor=none;align=left;verticalAlign=top;spacingLeft=4;spacingRight=4;overflow=hidden;rotatable=0;points=[[0,0.5],[1,0.5]];portConstraint=eastwest;whiteSpace=wrap;html=1;" parent="ZygjGXT3M7OOx8VJVT66-41" vertex="1">
          <mxGeometry y="78" width="172" height="26" as="geometry" />
        </mxCell>
        <mxCell id="ZygjGXT3M7OOx8VJVT66-96" value="+ Services: List&amp;lt;service&amp;gt;" style="text;strokeColor=none;fillColor=none;align=left;verticalAlign=top;spacingLeft=4;spacingRight=4;overflow=hidden;rotatable=0;points=[[0,0.5],[1,0.5]];portConstraint=eastwest;whiteSpace=wrap;html=1;" parent="ZygjGXT3M7OOx8VJVT66-41" vertex="1">
          <mxGeometry y="104" width="172" height="26" as="geometry" />
        </mxCell>
        <mxCell id="ZygjGXT3M7OOx8VJVT66-45" value="TariffService" style="swimlane;fontStyle=1;childLayout=stackLayout;horizontal=1;startSize=26;fillColor=none;horizontalStack=0;resizeParent=1;resizeParentMax=0;resizeLast=0;collapsible=1;marginBottom=0;whiteSpace=wrap;html=1;fontSize=12;" parent="WIyWlLk6GJQsqaUBKTNV-1" vertex="1">
          <mxGeometry x="260" y="190" width="200" height="104" as="geometry" />
        </mxCell>
        <mxCell id="ZygjGXT3M7OOx8VJVT66-46" value="+ TariffserviceID: int (id)" style="text;strokeColor=none;fillColor=none;align=left;verticalAlign=top;spacingLeft=4;spacingRight=4;overflow=hidden;rotatable=0;points=[[0,0.5],[1,0.5]];portConstraint=eastwest;whiteSpace=wrap;html=1;" parent="ZygjGXT3M7OOx8VJVT66-45" vertex="1">
          <mxGeometry y="26" width="200" height="26" as="geometry" />
        </mxCell>
        <mxCell id="ZygjGXT3M7OOx8VJVT66-47" value="+ Tariff: Tariff&amp;nbsp;" style="text;strokeColor=none;fillColor=none;align=left;verticalAlign=top;spacingLeft=4;spacingRight=4;overflow=hidden;rotatable=0;points=[[0,0.5],[1,0.5]];portConstraint=eastwest;whiteSpace=wrap;html=1;" parent="ZygjGXT3M7OOx8VJVT66-45" vertex="1">
          <mxGeometry y="52" width="200" height="26" as="geometry" />
        </mxCell>
        <mxCell id="ZygjGXT3M7OOx8VJVT66-48" value="+ Service: Service" style="text;strokeColor=none;fillColor=none;align=left;verticalAlign=top;spacingLeft=4;spacingRight=4;overflow=hidden;rotatable=0;points=[[0,0.5],[1,0.5]];portConstraint=eastwest;whiteSpace=wrap;html=1;" parent="ZygjGXT3M7OOx8VJVT66-45" vertex="1">
          <mxGeometry y="78" width="200" height="26" as="geometry" />
        </mxCell>
        <mxCell id="ZygjGXT3M7OOx8VJVT66-98" value="Использует" style="endArrow=open;html=1;endSize=12;startArrow=diamondThin;startSize=14;startFill=0;rounded=0;fontSize=12;exitX=1.008;exitY=0.057;exitDx=0;exitDy=0;entryX=0;entryY=0.436;entryDx=0;entryDy=0;entryPerimeter=0;exitPerimeter=0;" parent="WIyWlLk6GJQsqaUBKTNV-1" source="ZygjGXT3M7OOx8VJVT66-57" target="ZygjGXT3M7OOx8VJVT66-44" edge="1">
          <mxGeometry x="-0.0038" relative="1" as="geometry">
            <mxPoint x="170" y="500" as="sourcePoint" />
            <mxPoint x="250" y="480" as="targetPoint" />
            <mxPoint as="offset" />
          </mxGeometry>
        </mxCell>
        <mxCell id="ZygjGXT3M7OOx8VJVT66-99" value="1" style="edgeLabel;resizable=0;html=1;align=left;verticalAlign=top;fontSize=14;" parent="ZygjGXT3M7OOx8VJVT66-98" connectable="0" vertex="1">
          <mxGeometry x="-1" relative="1" as="geometry" />
        </mxCell>
        <mxCell id="ZygjGXT3M7OOx8VJVT66-100" value="1" style="edgeLabel;resizable=0;html=1;align=right;verticalAlign=top;fontSize=14;" parent="ZygjGXT3M7OOx8VJVT66-98" connectable="0" vertex="1">
          <mxGeometry x="1" relative="1" as="geometry" />
        </mxCell>
        <mxCell id="ZygjGXT3M7OOx8VJVT66-101" value="Имеет доступ" style="endArrow=open;html=1;endSize=12;startArrow=diamondThin;startSize=14;startFill=0;rounded=0;fontSize=12;exitX=1.022;exitY=0.154;exitDx=0;exitDy=0;entryX=-0.008;entryY=0.68;entryDx=0;entryDy=0;entryPerimeter=0;exitPerimeter=0;" parent="WIyWlLk6GJQsqaUBKTNV-1" source="ZygjGXT3M7OOx8VJVT66-22" target="ZygjGXT3M7OOx8VJVT66-59" edge="1">
          <mxGeometry x="-0.0038" relative="1" as="geometry">
            <mxPoint x="380" y="576" as="sourcePoint" />
            <mxPoint x="498" y="510" as="targetPoint" />
            <mxPoint as="offset" />
          </mxGeometry>
        </mxCell>
        <mxCell id="ZygjGXT3M7OOx8VJVT66-102" value="1" style="edgeLabel;resizable=0;html=1;align=center;verticalAlign=top;fontSize=14;labelPosition=center;verticalLabelPosition=bottom;" parent="ZygjGXT3M7OOx8VJVT66-101" connectable="0" vertex="1">
          <mxGeometry x="-1" relative="1" as="geometry" />
        </mxCell>
        <mxCell id="ZygjGXT3M7OOx8VJVT66-103" value="1" style="edgeLabel;resizable=0;html=1;align=right;verticalAlign=top;fontSize=14;" parent="ZygjGXT3M7OOx8VJVT66-101" connectable="0" vertex="1">
          <mxGeometry x="1" relative="1" as="geometry" />
        </mxCell>
        <mxCell id="ZygjGXT3M7OOx8VJVT66-104" value="Имеет доступ" style="endArrow=open;html=1;endSize=12;startArrow=diamondThin;startSize=14;startFill=0;rounded=0;fontSize=12;exitX=0.583;exitY=0;exitDx=0;exitDy=0;exitPerimeter=0;entryX=0.294;entryY=1.154;entryDx=0;entryDy=0;entryPerimeter=0;" parent="WIyWlLk6GJQsqaUBKTNV-1" source="ZygjGXT3M7OOx8VJVT66-17" target="ZygjGXT3M7OOx8VJVT66-58" edge="1">
          <mxGeometry x="-0.0038" relative="1" as="geometry">
            <mxPoint x="646" y="584" as="sourcePoint" />
            <mxPoint x="640" y="540" as="targetPoint" />
            <mxPoint as="offset" />
          </mxGeometry>
        </mxCell>
        <mxCell id="ZygjGXT3M7OOx8VJVT66-105" value="1" style="edgeLabel;resizable=0;html=1;align=left;verticalAlign=bottom;fontSize=14;labelPosition=right;verticalLabelPosition=top;" parent="ZygjGXT3M7OOx8VJVT66-104" connectable="0" vertex="1">
          <mxGeometry x="-1" relative="1" as="geometry" />
        </mxCell>
        <mxCell id="ZygjGXT3M7OOx8VJVT66-106" value="1" style="edgeLabel;resizable=0;html=1;align=right;verticalAlign=top;fontSize=14;" parent="ZygjGXT3M7OOx8VJVT66-104" connectable="0" vertex="1">
          <mxGeometry x="1" relative="1" as="geometry" />
        </mxCell>
        <mxCell id="ZygjGXT3M7OOx8VJVT66-107" value="Имеет доступ" style="endArrow=open;html=1;endSize=12;startArrow=diamondThin;startSize=14;startFill=0;rounded=0;fontSize=12;exitX=-0.001;exitY=0.073;exitDx=0;exitDy=0;exitPerimeter=0;entryX=1.019;entryY=0.025;entryDx=0;entryDy=0;entryPerimeter=0;" parent="WIyWlLk6GJQsqaUBKTNV-1" source="ZygjGXT3M7OOx8VJVT66-14" target="ZygjGXT3M7OOx8VJVT66-58" edge="1">
          <mxGeometry x="-0.0038" relative="1" as="geometry">
            <mxPoint x="870" y="520" as="sourcePoint" />
            <mxPoint x="870" y="440" as="targetPoint" />
            <mxPoint as="offset" />
          </mxGeometry>
        </mxCell>
        <mxCell id="ZygjGXT3M7OOx8VJVT66-108" value="1" style="edgeLabel;resizable=0;html=1;align=right;verticalAlign=top;fontSize=14;labelPosition=left;verticalLabelPosition=bottom;" parent="ZygjGXT3M7OOx8VJVT66-107" connectable="0" vertex="1">
          <mxGeometry x="-1" relative="1" as="geometry" />
        </mxCell>
        <mxCell id="ZygjGXT3M7OOx8VJVT66-109" value="1" style="edgeLabel;resizable=0;html=1;align=left;verticalAlign=bottom;fontSize=14;labelPosition=right;verticalLabelPosition=top;" parent="ZygjGXT3M7OOx8VJVT66-107" connectable="0" vertex="1">
          <mxGeometry x="1" relative="1" as="geometry" />
        </mxCell>
        <mxCell id="ZygjGXT3M7OOx8VJVT66-110" value="Включает" style="endArrow=open;html=1;endSize=12;startArrow=diamondThin;startSize=14;startFill=0;rounded=0;fontSize=12;entryX=1;entryY=0.75;entryDx=0;entryDy=0;exitX=0;exitY=0.154;exitDx=0;exitDy=0;exitPerimeter=0;" parent="WIyWlLk6GJQsqaUBKTNV-1" source="ZygjGXT3M7OOx8VJVT66-41" target="ZygjGXT3M7OOx8VJVT66-37" edge="1">
          <mxGeometry x="-0.0027" relative="1" as="geometry">
            <mxPoint x="230" y="411" as="sourcePoint" />
            <mxPoint x="270" y="340" as="targetPoint" />
            <mxPoint as="offset" />
          </mxGeometry>
        </mxCell>
        <mxCell id="ZygjGXT3M7OOx8VJVT66-111" value="1" style="edgeLabel;resizable=0;html=1;align=right;verticalAlign=top;fontSize=14;labelPosition=left;verticalLabelPosition=bottom;" parent="ZygjGXT3M7OOx8VJVT66-110" connectable="0" vertex="1">
          <mxGeometry x="-1" relative="1" as="geometry" />
        </mxCell>
        <mxCell id="ZygjGXT3M7OOx8VJVT66-112" value="0... *" style="edgeLabel;resizable=0;html=1;align=left;verticalAlign=top;fontSize=14;labelPosition=right;verticalLabelPosition=bottom;" parent="ZygjGXT3M7OOx8VJVT66-110" connectable="0" vertex="1">
          <mxGeometry x="1" relative="1" as="geometry" />
        </mxCell>
        <mxCell id="ZygjGXT3M7OOx8VJVT66-113" value="Распоряжается" style="endArrow=open;html=1;endSize=12;startArrow=diamondThin;startSize=14;startFill=0;rounded=0;fontSize=12;exitX=1;exitY=0.5;exitDx=0;exitDy=0;entryX=-0.011;entryY=0.113;entryDx=0;entryDy=0;entryPerimeter=0;" parent="WIyWlLk6GJQsqaUBKTNV-1" source="ZygjGXT3M7OOx8VJVT66-79" target="ZygjGXT3M7OOx8VJVT66-72" edge="1">
          <mxGeometry x="-0.0038" relative="1" as="geometry">
            <mxPoint x="372" y="970" as="sourcePoint" />
            <mxPoint x="520" y="760" as="targetPoint" />
            <mxPoint as="offset" />
          </mxGeometry>
        </mxCell>
        <mxCell id="ZygjGXT3M7OOx8VJVT66-114" value="1" style="edgeLabel;resizable=0;html=1;align=left;verticalAlign=top;fontSize=14;labelPosition=right;verticalLabelPosition=bottom;" parent="ZygjGXT3M7OOx8VJVT66-113" connectable="0" vertex="1">
          <mxGeometry x="-1" relative="1" as="geometry" />
        </mxCell>
        <mxCell id="ZygjGXT3M7OOx8VJVT66-115" value="0... *" style="edgeLabel;resizable=0;html=1;align=right;verticalAlign=top;fontSize=14;labelPosition=left;verticalLabelPosition=bottom;" parent="ZygjGXT3M7OOx8VJVT66-113" connectable="0" vertex="1">
          <mxGeometry x="1" relative="1" as="geometry" />
        </mxCell>
        <mxCell id="ZygjGXT3M7OOx8VJVT66-116" value="Принадлежит" style="endArrow=open;html=1;endSize=12;startArrow=diamondThin;startSize=14;startFill=0;rounded=0;fontSize=12;exitX=0.464;exitY=0.951;exitDx=0;exitDy=0;entryX=0.54;entryY=0;entryDx=0;entryDy=0;entryPerimeter=0;exitPerimeter=0;" parent="WIyWlLk6GJQsqaUBKTNV-1" source="ZygjGXT3M7OOx8VJVT66-48" target="ZygjGXT3M7OOx8VJVT66-41" edge="1">
          <mxGeometry x="-0.0025" relative="1" as="geometry">
            <mxPoint x="420" y="360" as="sourcePoint" />
            <mxPoint x="538" y="294" as="targetPoint" />
            <mxPoint as="offset" />
          </mxGeometry>
        </mxCell>
        <mxCell id="ZygjGXT3M7OOx8VJVT66-117" value="1" style="edgeLabel;resizable=0;html=1;align=left;verticalAlign=top;fontSize=14;" parent="ZygjGXT3M7OOx8VJVT66-116" connectable="0" vertex="1">
          <mxGeometry x="-1" relative="1" as="geometry" />
        </mxCell>
        <mxCell id="ZygjGXT3M7OOx8VJVT66-118" value="1" style="edgeLabel;resizable=0;html=1;align=left;verticalAlign=bottom;fontSize=14;labelPosition=right;verticalLabelPosition=top;" parent="ZygjGXT3M7OOx8VJVT66-116" connectable="0" vertex="1">
          <mxGeometry x="1" relative="1" as="geometry" />
        </mxCell>
        <mxCell id="ZygjGXT3M7OOx8VJVT66-119" value="Входит в&lt;div&gt;&amp;nbsp;состав&lt;/div&gt;" style="endArrow=open;html=1;endSize=12;startArrow=diamondThin;startSize=14;startFill=0;rounded=0;fontSize=12;exitX=0;exitY=0.5;exitDx=0;exitDy=0;entryX=1.002;entryY=0.209;entryDx=0;entryDy=0;entryPerimeter=0;" parent="WIyWlLk6GJQsqaUBKTNV-1" source="ZygjGXT3M7OOx8VJVT66-47" target="ZygjGXT3M7OOx8VJVT66-37" edge="1">
          <mxGeometry x="-0.0038" relative="1" as="geometry">
            <mxPoint x="190" y="230" as="sourcePoint" />
            <mxPoint x="190" y="317" as="targetPoint" />
            <mxPoint as="offset" />
          </mxGeometry>
        </mxCell>
        <mxCell id="ZygjGXT3M7OOx8VJVT66-120" value="1" style="edgeLabel;resizable=0;html=1;align=right;verticalAlign=top;fontSize=14;labelPosition=left;verticalLabelPosition=bottom;" parent="ZygjGXT3M7OOx8VJVT66-119" connectable="0" vertex="1">
          <mxGeometry x="-1" relative="1" as="geometry" />
        </mxCell>
        <mxCell id="ZygjGXT3M7OOx8VJVT66-121" value="1" style="edgeLabel;resizable=0;html=1;align=left;verticalAlign=bottom;fontSize=14;labelPosition=right;verticalLabelPosition=top;" parent="ZygjGXT3M7OOx8VJVT66-119" connectable="0" vertex="1">
          <mxGeometry x="1" relative="1" as="geometry" />
        </mxCell>
        <mxCell id="ZygjGXT3M7OOx8VJVT66-122" value="Отправляет" style="endArrow=open;html=1;endSize=12;startArrow=diamondThin;startSize=14;startFill=0;rounded=0;fontSize=12;exitX=0.269;exitY=1.068;exitDx=0;exitDy=0;exitPerimeter=0;entryX=0.392;entryY=0.001;entryDx=0;entryDy=0;entryPerimeter=0;" parent="WIyWlLk6GJQsqaUBKTNV-1" source="ZygjGXT3M7OOx8VJVT66-84" target="ZygjGXT3M7OOx8VJVT66-25" edge="1">
          <mxGeometry x="-0.0038" relative="1" as="geometry">
            <mxPoint x="298.5" y="940" as="sourcePoint" />
            <mxPoint x="250" y="980" as="targetPoint" />
            <mxPoint as="offset" />
          </mxGeometry>
        </mxCell>
        <mxCell id="ZygjGXT3M7OOx8VJVT66-123" value="1" style="edgeLabel;resizable=0;html=1;align=left;verticalAlign=top;fontSize=14;labelPosition=right;verticalLabelPosition=bottom;" parent="ZygjGXT3M7OOx8VJVT66-122" connectable="0" vertex="1">
          <mxGeometry x="-1" relative="1" as="geometry" />
        </mxCell>
        <mxCell id="ZygjGXT3M7OOx8VJVT66-124" value="0... *" style="edgeLabel;resizable=0;html=1;align=left;verticalAlign=bottom;fontSize=14;labelPosition=right;verticalLabelPosition=top;" parent="ZygjGXT3M7OOx8VJVT66-122" connectable="0" vertex="1">
          <mxGeometry x="1" relative="1" as="geometry" />
        </mxCell>
        <mxCell id="ZygjGXT3M7OOx8VJVT66-125" value="Просматривает" style="endArrow=open;html=1;endSize=12;startArrow=diamondThin;startSize=14;startFill=0;rounded=0;fontSize=12;exitX=-0.011;exitY=0.195;exitDx=0;exitDy=0;entryX=1;entryY=0.5;entryDx=0;entryDy=0;exitPerimeter=0;" parent="WIyWlLk6GJQsqaUBKTNV-1" source="ZygjGXT3M7OOx8VJVT66-65" target="ZygjGXT3M7OOx8VJVT66-26" edge="1">
          <mxGeometry x="-0.0038" relative="1" as="geometry">
            <mxPoint x="440" y="960" as="sourcePoint" />
            <mxPoint x="440" y="1042" as="targetPoint" />
            <mxPoint as="offset" />
          </mxGeometry>
        </mxCell>
        <mxCell id="ZygjGXT3M7OOx8VJVT66-126" value="1" style="edgeLabel;resizable=0;html=1;align=right;verticalAlign=top;fontSize=14;labelPosition=left;verticalLabelPosition=bottom;" parent="ZygjGXT3M7OOx8VJVT66-125" connectable="0" vertex="1">
          <mxGeometry x="-1" relative="1" as="geometry" />
        </mxCell>
        <mxCell id="ZygjGXT3M7OOx8VJVT66-127" value="0... *" style="edgeLabel;resizable=0;html=1;align=left;verticalAlign=top;fontSize=14;labelPosition=right;verticalLabelPosition=bottom;" parent="ZygjGXT3M7OOx8VJVT66-125" connectable="0" vertex="1">
          <mxGeometry x="1" relative="1" as="geometry" />
        </mxCell>
        <mxCell id="ZygjGXT3M7OOx8VJVT66-128" value="Получает" style="endArrow=open;html=1;endSize=12;startArrow=diamondThin;startSize=14;startFill=0;rounded=0;fontSize=12;exitX=1;exitY=0.5;exitDx=0;exitDy=0;entryX=-0.011;entryY=0.744;entryDx=0;entryDy=0;entryPerimeter=0;" parent="WIyWlLk6GJQsqaUBKTNV-1" target="ZygjGXT3M7OOx8VJVT66-35" edge="1">
          <mxGeometry x="-0.0038" relative="1" as="geometry">
            <mxPoint x="770" y="950" as="sourcePoint" />
            <mxPoint x="870" y="950" as="targetPoint" />
            <mxPoint as="offset" />
          </mxGeometry>
        </mxCell>
        <mxCell id="ZygjGXT3M7OOx8VJVT66-129" value="1" style="edgeLabel;resizable=0;html=1;align=left;verticalAlign=top;fontSize=14;labelPosition=right;verticalLabelPosition=bottom;" parent="ZygjGXT3M7OOx8VJVT66-128" connectable="0" vertex="1">
          <mxGeometry x="-1" relative="1" as="geometry" />
        </mxCell>
        <mxCell id="ZygjGXT3M7OOx8VJVT66-130" value="0... *" style="edgeLabel;resizable=0;html=1;align=right;verticalAlign=top;fontSize=14;labelPosition=left;verticalLabelPosition=bottom;" parent="ZygjGXT3M7OOx8VJVT66-128" connectable="0" vertex="1">
          <mxGeometry x="1" relative="1" as="geometry" />
        </mxCell>
        <mxCell id="ZygjGXT3M7OOx8VJVT66-131" value="Формирует" style="endArrow=open;html=1;endSize=12;startArrow=diamondThin;startSize=14;startFill=0;rounded=0;fontSize=12;exitX=0.356;exitY=1.139;exitDx=0;exitDy=0;entryX=0.475;entryY=-0.007;entryDx=0;entryDy=0;entryPerimeter=0;exitPerimeter=0;" parent="WIyWlLk6GJQsqaUBKTNV-1" source="ZygjGXT3M7OOx8VJVT66-20" target="ZygjGXT3M7OOx8VJVT66-29" edge="1">
          <mxGeometry x="-0.0038" relative="1" as="geometry">
            <mxPoint x="610" y="1060" as="sourcePoint" />
            <mxPoint x="748" y="1061" as="targetPoint" />
            <mxPoint as="offset" />
          </mxGeometry>
        </mxCell>
        <mxCell id="ZygjGXT3M7OOx8VJVT66-132" value="1" style="edgeLabel;resizable=0;html=1;align=left;verticalAlign=top;fontSize=14;labelPosition=right;verticalLabelPosition=bottom;" parent="ZygjGXT3M7OOx8VJVT66-131" connectable="0" vertex="1">
          <mxGeometry x="-1" relative="1" as="geometry" />
        </mxCell>
        <mxCell id="ZygjGXT3M7OOx8VJVT66-133" value="0... *" style="edgeLabel;resizable=0;html=1;align=left;verticalAlign=bottom;fontSize=14;labelPosition=right;verticalLabelPosition=top;" parent="ZygjGXT3M7OOx8VJVT66-131" connectable="0" vertex="1">
          <mxGeometry x="1" relative="1" as="geometry" />
        </mxCell>
      </root>
    </mxGraphModel>
  </diagram>
</mxfile>
